<svg width="32" height="32" viewBox="0 0 32 32" fill="none" xmlns="http://www.w3.org/2000/svg">
  <!-- Jumping bunny silhouette -->
  <path d="M22 11C22 11 23 9 23 7C23 5.5 22 4 20 4C19 4 18.5 5 18.5 6L18 8M26 10C26 10 27 8 27.5 6.5C28 5 27.5 3.5 26 3C25 2.5 24.5 3.5 24.5 4.5L24 7" stroke="#0A0A0A" stroke-width="1.2" stroke-linecap="round" stroke-linejoin="round"/>
  
  <!-- Body -->
  <ellipse cx="17" cy="13" rx="6" ry="4.5" fill="#0A0A0A"/>
  
  <!-- Head -->
  <circle cx="23" cy="8.5" r="3.5" fill="#0A0A0A"/>
  
  <!-- Front legs -->
  <ellipse cx="14" cy="16" rx="1.5" ry="2.5" fill="#0A0A0A" transform="rotate(-30 14 16)"/>
  <ellipse cx="16.5" cy="17" rx="1.3" ry="2.3" fill="#0A0A0A" transform="rotate(-15 16.5 17)"/>
  
  <!-- Back legs -->
  <ellipse cx="10" cy="14.5" rx="2" ry="4" fill="#0A0A0A" transform="rotate(-45 10 14.5)"/>
  <ellipse cx="12.5" cy="15.5" rx="1.7" ry="3.5" fill="#0A0A0A" transform="rotate(-30 12.5 15.5)"/>
  
  <!-- Tail -->
  <circle cx="11" cy="11" r="2" fill="#0A0A0A"/>
</svg>
